<mxfile host="app.diagrams.net" modified="2021-02-19T00:26:11.979Z" agent="5.0 (Windows NT 10.0; Win64; x64) AppleWebKit/537.36 (KHTML, like Gecko) Chrome/88.0.4324.182 Safari/537.36" etag="rDum0DldAxzMCQEzNFJx" version="14.2.9" type="github" pages="2">
  <diagram id="SNN_i0FdVK82FHHx-FIl" name="Without Delegates">
    <mxGraphModel dx="1422" dy="762" grid="1" gridSize="10" guides="1" tooltips="1" connect="1" arrows="1" fold="1" page="1" pageScale="1" pageWidth="850" pageHeight="1100" math="0" shadow="0">
      <root>
        <mxCell id="0" />
        <mxCell id="1" parent="0" />
        <mxCell id="VoUtw5Cwqs8tru-vUeM7-9" value="View" style="html=1;align=left;" parent="1" vertex="1">
          <mxGeometry x="10" y="60" width="370" height="430" as="geometry" />
        </mxCell>
        <mxCell id="VoUtw5Cwqs8tru-vUeM7-1" value="InputForm" style="swimlane;fontStyle=1;align=center;verticalAlign=top;childLayout=stackLayout;horizontal=1;startSize=26;horizontalStack=0;resizeParent=1;resizeParentMax=0;resizeLast=0;collapsible=1;marginBottom=0;" parent="1" vertex="1">
          <mxGeometry x="40" y="80" width="310" height="138" as="geometry" />
        </mxCell>
        <mxCell id="VoUtw5Cwqs8tru-vUeM7-2" value="-Controller:controller" style="text;strokeColor=none;fillColor=none;align=left;verticalAlign=top;spacingLeft=4;spacingRight=4;overflow=hidden;rotatable=0;points=[[0,0.5],[1,0.5]];portConstraint=eastwest;" parent="VoUtw5Cwqs8tru-vUeM7-1" vertex="1">
          <mxGeometry y="26" width="310" height="26" as="geometry" />
        </mxCell>
        <mxCell id="VoUtw5Cwqs8tru-vUeM7-3" value="" style="line;strokeWidth=1;fillColor=none;align=left;verticalAlign=middle;spacingTop=-1;spacingLeft=3;spacingRight=3;rotatable=0;labelPosition=right;points=[];portConstraint=eastwest;" parent="VoUtw5Cwqs8tru-vUeM7-1" vertex="1">
          <mxGeometry y="52" width="310" height="8" as="geometry" />
        </mxCell>
        <mxCell id="VoUtw5Cwqs8tru-vUeM7-4" value="-UxLoginBtn_Click(object, Eventargs):void" style="text;strokeColor=none;fillColor=none;align=left;verticalAlign=top;spacingLeft=4;spacingRight=4;overflow=hidden;rotatable=0;points=[[0,0.5],[1,0.5]];portConstraint=eastwest;" parent="VoUtw5Cwqs8tru-vUeM7-1" vertex="1">
          <mxGeometry y="60" width="310" height="26" as="geometry" />
        </mxCell>
        <mxCell id="VoUtw5Cwqs8tru-vUeM7-14" value="-tbUserName_TextChanged(object, Eventargs):void" style="text;strokeColor=none;fillColor=none;align=left;verticalAlign=top;spacingLeft=4;spacingRight=4;overflow=hidden;rotatable=0;points=[[0,0.5],[1,0.5]];portConstraint=eastwest;" parent="VoUtw5Cwqs8tru-vUeM7-1" vertex="1">
          <mxGeometry y="86" width="310" height="26" as="geometry" />
        </mxCell>
        <mxCell id="VoUtw5Cwqs8tru-vUeM7-16" value="+SetController(Controller):void" style="text;strokeColor=none;fillColor=none;align=left;verticalAlign=top;spacingLeft=4;spacingRight=4;overflow=hidden;rotatable=0;points=[[0,0.5],[1,0.5]];portConstraint=eastwest;" parent="VoUtw5Cwqs8tru-vUeM7-1" vertex="1">
          <mxGeometry y="112" width="310" height="26" as="geometry" />
        </mxCell>
        <mxCell id="VoUtw5Cwqs8tru-vUeM7-5" value="OutputForm" style="swimlane;fontStyle=1;align=center;verticalAlign=top;childLayout=stackLayout;horizontal=1;startSize=26;horizontalStack=0;resizeParent=1;resizeParentMax=0;resizeLast=0;collapsible=1;marginBottom=0;" parent="1" vertex="1">
          <mxGeometry x="40" y="290" width="250" height="164" as="geometry" />
        </mxCell>
        <mxCell id="VoUtw5Cwqs8tru-vUeM7-6" value="-Controller:controller" style="text;strokeColor=none;fillColor=none;align=left;verticalAlign=top;spacingLeft=4;spacingRight=4;overflow=hidden;rotatable=0;points=[[0,0.5],[1,0.5]];portConstraint=eastwest;" parent="VoUtw5Cwqs8tru-vUeM7-5" vertex="1">
          <mxGeometry y="26" width="250" height="26" as="geometry" />
        </mxCell>
        <mxCell id="VoUtw5Cwqs8tru-vUeM7-7" value="" style="line;strokeWidth=1;fillColor=none;align=left;verticalAlign=middle;spacingTop=-1;spacingLeft=3;spacingRight=3;rotatable=0;labelPosition=right;points=[];portConstraint=eastwest;" parent="VoUtw5Cwqs8tru-vUeM7-5" vertex="1">
          <mxGeometry y="52" width="250" height="8" as="geometry" />
        </mxCell>
        <mxCell id="VoUtw5Cwqs8tru-vUeM7-8" value="+DisplayState(State): void" style="text;strokeColor=none;fillColor=none;align=left;verticalAlign=top;spacingLeft=4;spacingRight=4;overflow=hidden;rotatable=0;points=[[0,0.5],[1,0.5]];portConstraint=eastwest;" parent="VoUtw5Cwqs8tru-vUeM7-5" vertex="1">
          <mxGeometry y="60" width="250" height="26" as="geometry" />
        </mxCell>
        <mxCell id="VoUtw5Cwqs8tru-vUeM7-11" value="#OnShown(EventArgs): voidÂ &lt;&lt;override&gt;&gt;" style="text;strokeColor=none;fillColor=none;align=left;verticalAlign=top;spacingLeft=4;spacingRight=4;overflow=hidden;rotatable=0;points=[[0,0.5],[1,0.5]];portConstraint=eastwest;" parent="VoUtw5Cwqs8tru-vUeM7-5" vertex="1">
          <mxGeometry y="86" width="250" height="26" as="geometry" />
        </mxCell>
        <mxCell id="VoUtw5Cwqs8tru-vUeM7-15" value="+DisplayState(State): void" style="text;strokeColor=none;fillColor=none;align=left;verticalAlign=top;spacingLeft=4;spacingRight=4;overflow=hidden;rotatable=0;points=[[0,0.5],[1,0.5]];portConstraint=eastwest;" parent="VoUtw5Cwqs8tru-vUeM7-5" vertex="1">
          <mxGeometry y="112" width="250" height="26" as="geometry" />
        </mxCell>
        <mxCell id="VoUtw5Cwqs8tru-vUeM7-12" value="+DisplayState(State): void" style="text;strokeColor=none;fillColor=none;align=left;verticalAlign=top;spacingLeft=4;spacingRight=4;overflow=hidden;rotatable=0;points=[[0,0.5],[1,0.5]];portConstraint=eastwest;" parent="VoUtw5Cwqs8tru-vUeM7-5" vertex="1">
          <mxGeometry y="138" width="250" height="26" as="geometry" />
        </mxCell>
        <mxCell id="VoUtw5Cwqs8tru-vUeM7-17" value="Controller" style="swimlane;fontStyle=1;align=center;verticalAlign=top;childLayout=stackLayout;horizontal=1;startSize=26;horizontalStack=0;resizeParent=1;resizeParentMax=0;resizeLast=0;collapsible=1;marginBottom=0;" parent="1" vertex="1">
          <mxGeometry x="400" y="500" width="230" height="138" as="geometry" />
        </mxCell>
        <mxCell id="VoUtw5Cwqs8tru-vUeM7-18" value="-CredentialsM:model" style="text;strokeColor=none;fillColor=none;align=left;verticalAlign=top;spacingLeft=4;spacingRight=4;overflow=hidden;rotatable=0;points=[[0,0.5],[1,0.5]];portConstraint=eastwest;" parent="VoUtw5Cwqs8tru-vUeM7-17" vertex="1">
          <mxGeometry y="26" width="230" height="26" as="geometry" />
        </mxCell>
        <mxCell id="VoUtw5Cwqs8tru-vUeM7-21" value="-LoginForm:view" style="text;strokeColor=none;fillColor=none;align=left;verticalAlign=top;spacingLeft=4;spacingRight=4;overflow=hidden;rotatable=0;points=[[0,0.5],[1,0.5]];portConstraint=eastwest;" parent="VoUtw5Cwqs8tru-vUeM7-17" vertex="1">
          <mxGeometry y="52" width="230" height="26" as="geometry" />
        </mxCell>
        <mxCell id="VoUtw5Cwqs8tru-vUeM7-19" value="" style="line;strokeWidth=1;fillColor=none;align=left;verticalAlign=middle;spacingTop=-1;spacingLeft=3;spacingRight=3;rotatable=0;labelPosition=right;points=[];portConstraint=eastwest;" parent="VoUtw5Cwqs8tru-vUeM7-17" vertex="1">
          <mxGeometry y="78" width="230" height="8" as="geometry" />
        </mxCell>
        <mxCell id="VoUtw5Cwqs8tru-vUeM7-20" value="+ handleEvents(State, String): void" style="text;strokeColor=none;fillColor=none;align=left;verticalAlign=top;spacingLeft=4;spacingRight=4;overflow=hidden;rotatable=0;points=[[0,0.5],[1,0.5]];portConstraint=eastwest;" parent="VoUtw5Cwqs8tru-vUeM7-17" vertex="1">
          <mxGeometry y="86" width="230" height="26" as="geometry" />
        </mxCell>
        <mxCell id="VoUtw5Cwqs8tru-vUeM7-22" value="+ validateCredentials(String):bool" style="text;strokeColor=none;fillColor=none;align=left;verticalAlign=top;spacingLeft=4;spacingRight=4;overflow=hidden;rotatable=0;points=[[0,0.5],[1,0.5]];portConstraint=eastwest;" parent="VoUtw5Cwqs8tru-vUeM7-17" vertex="1">
          <mxGeometry y="112" width="230" height="26" as="geometry" />
        </mxCell>
        <mxCell id="VoUtw5Cwqs8tru-vUeM7-31" style="edgeStyle=orthogonalEdgeStyle;rounded=0;orthogonalLoop=1;jettySize=auto;html=1;entryX=0;entryY=1.077;entryDx=0;entryDy=0;entryPerimeter=0;dashed=1;endArrow=none;endFill=0;startArrow=open;startFill=0;exitX=1.003;exitY=0.119;exitDx=0;exitDy=0;exitPerimeter=0;" parent="1" source="VoUtw5Cwqs8tru-vUeM7-46" target="VoUtw5Cwqs8tru-vUeM7-21" edge="1">
          <mxGeometry relative="1" as="geometry">
            <mxPoint x="260" y="579.0000000000002" as="sourcePoint" />
            <Array as="points">
              <mxPoint x="250" y="580" />
            </Array>
          </mxGeometry>
        </mxCell>
        <mxCell id="VoUtw5Cwqs8tru-vUeM7-32" value="CredentialsM" style="swimlane;fontStyle=1;align=center;verticalAlign=top;childLayout=stackLayout;horizontal=1;startSize=26;horizontalStack=0;resizeParent=1;resizeParentMax=0;resizeLast=0;collapsible=1;marginBottom=0;" parent="1" vertex="1">
          <mxGeometry x="590" y="316" width="180" height="112" as="geometry" />
        </mxCell>
        <mxCell id="VoUtw5Cwqs8tru-vUeM7-33" value="+string:Uname" style="text;strokeColor=none;fillColor=none;align=left;verticalAlign=top;spacingLeft=4;spacingRight=4;overflow=hidden;rotatable=0;points=[[0,0.5],[1,0.5]];portConstraint=eastwest;" parent="VoUtw5Cwqs8tru-vUeM7-32" vertex="1">
          <mxGeometry y="26" width="180" height="26" as="geometry" />
        </mxCell>
        <mxCell id="VoUtw5Cwqs8tru-vUeM7-36" value="+string: Password" style="text;strokeColor=none;fillColor=none;align=left;verticalAlign=top;spacingLeft=4;spacingRight=4;overflow=hidden;rotatable=0;points=[[0,0.5],[1,0.5]];portConstraint=eastwest;" parent="VoUtw5Cwqs8tru-vUeM7-32" vertex="1">
          <mxGeometry y="52" width="180" height="26" as="geometry" />
        </mxCell>
        <mxCell id="VoUtw5Cwqs8tru-vUeM7-34" value="" style="line;strokeWidth=1;fillColor=none;align=left;verticalAlign=middle;spacingTop=-1;spacingLeft=3;spacingRight=3;rotatable=0;labelPosition=right;points=[];portConstraint=eastwest;" parent="VoUtw5Cwqs8tru-vUeM7-32" vertex="1">
          <mxGeometry y="78" width="180" height="8" as="geometry" />
        </mxCell>
        <mxCell id="VoUtw5Cwqs8tru-vUeM7-35" value="+Validate(String, String):bool" style="text;strokeColor=none;fillColor=none;align=left;verticalAlign=top;spacingLeft=4;spacingRight=4;overflow=hidden;rotatable=0;points=[[0,0.5],[1,0.5]];portConstraint=eastwest;" parent="VoUtw5Cwqs8tru-vUeM7-32" vertex="1">
          <mxGeometry y="86" width="180" height="26" as="geometry" />
        </mxCell>
        <mxCell id="VoUtw5Cwqs8tru-vUeM7-37" value="" style="endArrow=open;html=1;exitX=1;exitY=0.75;exitDx=0;exitDy=0;entryX=0.5;entryY=0;entryDx=0;entryDy=0;endFill=0;" parent="1" source="VoUtw5Cwqs8tru-vUeM7-9" target="VoUtw5Cwqs8tru-vUeM7-17" edge="1">
          <mxGeometry width="50" height="50" relative="1" as="geometry">
            <mxPoint x="400" y="490" as="sourcePoint" />
            <mxPoint x="450" y="440" as="targetPoint" />
            <Array as="points">
              <mxPoint x="515" y="383" />
            </Array>
          </mxGeometry>
        </mxCell>
        <mxCell id="VoUtw5Cwqs8tru-vUeM7-39" value="" style="endArrow=none;html=1;exitX=1.008;exitY=0.793;exitDx=0;exitDy=0;entryX=0.443;entryY=-0.028;entryDx=0;entryDy=0;endFill=0;exitPerimeter=0;entryPerimeter=0;startArrow=open;startFill=0;" parent="1" source="VoUtw5Cwqs8tru-vUeM7-9" target="VoUtw5Cwqs8tru-vUeM7-17" edge="1">
          <mxGeometry width="50" height="50" relative="1" as="geometry">
            <mxPoint x="390" y="392.5" as="sourcePoint" />
            <mxPoint x="525" y="510" as="targetPoint" />
            <Array as="points">
              <mxPoint x="500" y="401" />
              <mxPoint x="502" y="460" />
            </Array>
          </mxGeometry>
        </mxCell>
        <mxCell id="VoUtw5Cwqs8tru-vUeM7-40" value="" style="endArrow=open;html=1;exitX=0.701;exitY=-0.004;exitDx=0;exitDy=0;entryX=0.562;entryY=1.186;entryDx=0;entryDy=0;endFill=0;entryPerimeter=0;exitPerimeter=0;" parent="1" source="VoUtw5Cwqs8tru-vUeM7-17" target="VoUtw5Cwqs8tru-vUeM7-35" edge="1">
          <mxGeometry width="50" height="50" relative="1" as="geometry">
            <mxPoint x="530" y="440" as="sourcePoint" />
            <mxPoint x="610" y="440" as="targetPoint" />
          </mxGeometry>
        </mxCell>
        <mxCell id="VoUtw5Cwqs8tru-vUeM7-41" style="edgeStyle=orthogonalEdgeStyle;rounded=0;orthogonalLoop=1;jettySize=auto;html=1;entryX=0.5;entryY=0;entryDx=0;entryDy=0;dashed=1;endArrow=open;endFill=0;startArrow=none;startFill=0;" parent="1" source="VoUtw5Cwqs8tru-vUeM7-9" edge="1">
          <mxGeometry relative="1" as="geometry">
            <mxPoint x="80" y="539" as="sourcePoint" />
            <mxPoint x="205" y="554" as="targetPoint" />
            <Array as="points">
              <mxPoint x="120" y="540" />
              <mxPoint x="205" y="540" />
            </Array>
          </mxGeometry>
        </mxCell>
        <mxCell id="VoUtw5Cwqs8tru-vUeM7-46" value="Â«enumÂ»&lt;br&gt;&lt;b&gt;State&lt;br&gt;&lt;/b&gt;&lt;br&gt;NOTINIT&lt;br&gt;START&lt;br&gt;GOTUSERNAME&lt;br&gt;GOTPASSWORD&lt;br&gt;SUCCESS&lt;br&gt;DECLINED&lt;br&gt;EXIT" style="html=1;" parent="1" vertex="1">
          <mxGeometry x="140" y="560" width="110" height="150" as="geometry" />
        </mxCell>
      </root>
    </mxGraphModel>
  </diagram>
  <diagram id="3JuQRtHlfed-bcRLQGUG" name="With Delegates">
    <mxGraphModel dx="1422" dy="762" grid="1" gridSize="10" guides="1" tooltips="1" connect="1" arrows="1" fold="1" page="1" pageScale="1" pageWidth="850" pageHeight="1100" math="0" shadow="0">
      <root>
        <mxCell id="e9sg7XmWo2hIKwXYMkLT-0" />
        <mxCell id="e9sg7XmWo2hIKwXYMkLT-1" parent="e9sg7XmWo2hIKwXYMkLT-0" />
        <mxCell id="W9kJJ2JmV9t0-KWgIfCX-0" value="View" style="html=1;align=left;" parent="e9sg7XmWo2hIKwXYMkLT-1" vertex="1">
          <mxGeometry x="10" y="60" width="450" height="430" as="geometry" />
        </mxCell>
        <mxCell id="W9kJJ2JmV9t0-KWgIfCX-1" value="InputForm" style="swimlane;fontStyle=1;align=center;verticalAlign=top;childLayout=stackLayout;horizontal=1;startSize=26;horizontalStack=0;resizeParent=1;resizeParentMax=0;resizeLast=0;collapsible=1;marginBottom=0;" parent="e9sg7XmWo2hIKwXYMkLT-1" vertex="1">
          <mxGeometry x="20" y="80" width="310" height="138" as="geometry" />
        </mxCell>
        <mxCell id="W9kJJ2JmV9t0-KWgIfCX-2" value="-Controller:controller" style="text;strokeColor=none;fillColor=none;align=left;verticalAlign=top;spacingLeft=4;spacingRight=4;overflow=hidden;rotatable=0;points=[[0,0.5],[1,0.5]];portConstraint=eastwest;" parent="W9kJJ2JmV9t0-KWgIfCX-1" vertex="1">
          <mxGeometry y="26" width="310" height="26" as="geometry" />
        </mxCell>
        <mxCell id="W9kJJ2JmV9t0-KWgIfCX-3" value="" style="line;strokeWidth=1;fillColor=none;align=left;verticalAlign=middle;spacingTop=-1;spacingLeft=3;spacingRight=3;rotatable=0;labelPosition=right;points=[];portConstraint=eastwest;" parent="W9kJJ2JmV9t0-KWgIfCX-1" vertex="1">
          <mxGeometry y="52" width="310" height="8" as="geometry" />
        </mxCell>
        <mxCell id="W9kJJ2JmV9t0-KWgIfCX-4" value="-UxLoginBtn_Click(object, Eventargs):void" style="text;strokeColor=none;fillColor=none;align=left;verticalAlign=top;spacingLeft=4;spacingRight=4;overflow=hidden;rotatable=0;points=[[0,0.5],[1,0.5]];portConstraint=eastwest;" parent="W9kJJ2JmV9t0-KWgIfCX-1" vertex="1">
          <mxGeometry y="60" width="310" height="26" as="geometry" />
        </mxCell>
        <mxCell id="W9kJJ2JmV9t0-KWgIfCX-5" value="-tbUserName_TextChanged(object, Eventargs):void" style="text;strokeColor=none;fillColor=none;align=left;verticalAlign=top;spacingLeft=4;spacingRight=4;overflow=hidden;rotatable=0;points=[[0,0.5],[1,0.5]];portConstraint=eastwest;" parent="W9kJJ2JmV9t0-KWgIfCX-1" vertex="1">
          <mxGeometry y="86" width="310" height="26" as="geometry" />
        </mxCell>
        <mxCell id="W9kJJ2JmV9t0-KWgIfCX-6" value="+SetController(Controller):void" style="text;strokeColor=none;fillColor=none;align=left;verticalAlign=top;spacingLeft=4;spacingRight=4;overflow=hidden;rotatable=0;points=[[0,0.5],[1,0.5]];portConstraint=eastwest;" parent="W9kJJ2JmV9t0-KWgIfCX-1" vertex="1">
          <mxGeometry y="112" width="310" height="26" as="geometry" />
        </mxCell>
        <mxCell id="W9kJJ2JmV9t0-KWgIfCX-7" value="OutputForm" style="swimlane;fontStyle=1;align=center;verticalAlign=top;childLayout=stackLayout;horizontal=1;startSize=26;horizontalStack=0;resizeParent=1;resizeParentMax=0;resizeLast=0;collapsible=1;marginBottom=0;" parent="e9sg7XmWo2hIKwXYMkLT-1" vertex="1">
          <mxGeometry x="40" y="290" width="250" height="112" as="geometry" />
        </mxCell>
        <mxCell id="W9kJJ2JmV9t0-KWgIfCX-8" value="-Controller:controller" style="text;strokeColor=none;fillColor=none;align=left;verticalAlign=top;spacingLeft=4;spacingRight=4;overflow=hidden;rotatable=0;points=[[0,0.5],[1,0.5]];portConstraint=eastwest;" parent="W9kJJ2JmV9t0-KWgIfCX-7" vertex="1">
          <mxGeometry y="26" width="250" height="26" as="geometry" />
        </mxCell>
        <mxCell id="W9kJJ2JmV9t0-KWgIfCX-9" value="" style="line;strokeWidth=1;fillColor=none;align=left;verticalAlign=middle;spacingTop=-1;spacingLeft=3;spacingRight=3;rotatable=0;labelPosition=right;points=[];portConstraint=eastwest;" parent="W9kJJ2JmV9t0-KWgIfCX-7" vertex="1">
          <mxGeometry y="52" width="250" height="8" as="geometry" />
        </mxCell>
        <mxCell id="W9kJJ2JmV9t0-KWgIfCX-10" value="+DisplayState(State): void" style="text;strokeColor=none;fillColor=none;align=left;verticalAlign=top;spacingLeft=4;spacingRight=4;overflow=hidden;rotatable=0;points=[[0,0.5],[1,0.5]];portConstraint=eastwest;" parent="W9kJJ2JmV9t0-KWgIfCX-7" vertex="1">
          <mxGeometry y="60" width="250" height="26" as="geometry" />
        </mxCell>
        <mxCell id="W9kJJ2JmV9t0-KWgIfCX-11" value="#OnShown(EventArgs): voidÂ &lt;&lt;override&gt;&gt;" style="text;strokeColor=none;fillColor=none;align=left;verticalAlign=top;spacingLeft=4;spacingRight=4;overflow=hidden;rotatable=0;points=[[0,0.5],[1,0.5]];portConstraint=eastwest;" parent="W9kJJ2JmV9t0-KWgIfCX-7" vertex="1">
          <mxGeometry y="86" width="250" height="26" as="geometry" />
        </mxCell>
        <mxCell id="W9kJJ2JmV9t0-KWgIfCX-14" value="Controller" style="swimlane;fontStyle=1;align=center;verticalAlign=top;childLayout=stackLayout;horizontal=1;startSize=26;horizontalStack=0;resizeParent=1;resizeParentMax=0;resizeLast=0;collapsible=1;marginBottom=0;" parent="e9sg7XmWo2hIKwXYMkLT-1" vertex="1">
          <mxGeometry x="400" y="500" width="230" height="138" as="geometry" />
        </mxCell>
        <mxCell id="W9kJJ2JmV9t0-KWgIfCX-15" value="-CredentialsM:model" style="text;strokeColor=none;fillColor=none;align=left;verticalAlign=top;spacingLeft=4;spacingRight=4;overflow=hidden;rotatable=0;points=[[0,0.5],[1,0.5]];portConstraint=eastwest;" parent="W9kJJ2JmV9t0-KWgIfCX-14" vertex="1">
          <mxGeometry y="26" width="230" height="26" as="geometry" />
        </mxCell>
        <mxCell id="W9kJJ2JmV9t0-KWgIfCX-16" value="-LoginForm:view" style="text;strokeColor=none;fillColor=none;align=left;verticalAlign=top;spacingLeft=4;spacingRight=4;overflow=hidden;rotatable=0;points=[[0,0.5],[1,0.5]];portConstraint=eastwest;" parent="W9kJJ2JmV9t0-KWgIfCX-14" vertex="1">
          <mxGeometry y="52" width="230" height="26" as="geometry" />
        </mxCell>
        <mxCell id="W9kJJ2JmV9t0-KWgIfCX-17" value="" style="line;strokeWidth=1;fillColor=none;align=left;verticalAlign=middle;spacingTop=-1;spacingLeft=3;spacingRight=3;rotatable=0;labelPosition=right;points=[];portConstraint=eastwest;" parent="W9kJJ2JmV9t0-KWgIfCX-14" vertex="1">
          <mxGeometry y="78" width="230" height="8" as="geometry" />
        </mxCell>
        <mxCell id="W9kJJ2JmV9t0-KWgIfCX-18" value="+ handleEvents(State, String): void" style="text;strokeColor=none;fillColor=none;align=left;verticalAlign=top;spacingLeft=4;spacingRight=4;overflow=hidden;rotatable=0;points=[[0,0.5],[1,0.5]];portConstraint=eastwest;" parent="W9kJJ2JmV9t0-KWgIfCX-14" vertex="1">
          <mxGeometry y="86" width="230" height="26" as="geometry" />
        </mxCell>
        <mxCell id="W9kJJ2JmV9t0-KWgIfCX-19" value="+ validateCredentials(String):bool" style="text;strokeColor=none;fillColor=none;align=left;verticalAlign=top;spacingLeft=4;spacingRight=4;overflow=hidden;rotatable=0;points=[[0,0.5],[1,0.5]];portConstraint=eastwest;" parent="W9kJJ2JmV9t0-KWgIfCX-14" vertex="1">
          <mxGeometry y="112" width="230" height="26" as="geometry" />
        </mxCell>
        <mxCell id="W9kJJ2JmV9t0-KWgIfCX-20" style="edgeStyle=orthogonalEdgeStyle;rounded=0;orthogonalLoop=1;jettySize=auto;html=1;entryX=0;entryY=1.077;entryDx=0;entryDy=0;entryPerimeter=0;dashed=1;endArrow=none;endFill=0;startArrow=open;startFill=0;" parent="e9sg7XmWo2hIKwXYMkLT-1" source="W9kJJ2JmV9t0-KWgIfCX-30" edge="1">
          <mxGeometry relative="1" as="geometry">
            <mxPoint x="242.32999999999993" y="574.8499999999999" as="sourcePoint" />
            <Array as="points">
              <mxPoint x="240" y="577" />
              <mxPoint x="240" y="577" />
            </Array>
            <mxPoint x="400" y="577.002" as="targetPoint" />
          </mxGeometry>
        </mxCell>
        <mxCell id="W9kJJ2JmV9t0-KWgIfCX-21" value="CredentialsM" style="swimlane;fontStyle=1;align=center;verticalAlign=top;childLayout=stackLayout;horizontal=1;startSize=26;horizontalStack=0;resizeParent=1;resizeParentMax=0;resizeLast=0;collapsible=1;marginBottom=0;" parent="e9sg7XmWo2hIKwXYMkLT-1" vertex="1">
          <mxGeometry x="640" y="650" width="180" height="112" as="geometry" />
        </mxCell>
        <mxCell id="W9kJJ2JmV9t0-KWgIfCX-22" value="+string:Uname" style="text;strokeColor=none;fillColor=none;align=left;verticalAlign=top;spacingLeft=4;spacingRight=4;overflow=hidden;rotatable=0;points=[[0,0.5],[1,0.5]];portConstraint=eastwest;" parent="W9kJJ2JmV9t0-KWgIfCX-21" vertex="1">
          <mxGeometry y="26" width="180" height="26" as="geometry" />
        </mxCell>
        <mxCell id="W9kJJ2JmV9t0-KWgIfCX-23" value="+string: Password" style="text;strokeColor=none;fillColor=none;align=left;verticalAlign=top;spacingLeft=4;spacingRight=4;overflow=hidden;rotatable=0;points=[[0,0.5],[1,0.5]];portConstraint=eastwest;" parent="W9kJJ2JmV9t0-KWgIfCX-21" vertex="1">
          <mxGeometry y="52" width="180" height="26" as="geometry" />
        </mxCell>
        <mxCell id="W9kJJ2JmV9t0-KWgIfCX-24" value="" style="line;strokeWidth=1;fillColor=none;align=left;verticalAlign=middle;spacingTop=-1;spacingLeft=3;spacingRight=3;rotatable=0;labelPosition=right;points=[];portConstraint=eastwest;" parent="W9kJJ2JmV9t0-KWgIfCX-21" vertex="1">
          <mxGeometry y="78" width="180" height="8" as="geometry" />
        </mxCell>
        <mxCell id="W9kJJ2JmV9t0-KWgIfCX-25" value="+Validate(String, String):bool" style="text;strokeColor=none;fillColor=none;align=left;verticalAlign=top;spacingLeft=4;spacingRight=4;overflow=hidden;rotatable=0;points=[[0,0.5],[1,0.5]];portConstraint=eastwest;" parent="W9kJJ2JmV9t0-KWgIfCX-21" vertex="1">
          <mxGeometry y="86" width="180" height="26" as="geometry" />
        </mxCell>
        <mxCell id="W9kJJ2JmV9t0-KWgIfCX-28" value="" style="endArrow=open;html=1;exitX=0.548;exitY=0.962;exitDx=0;exitDy=0;endFill=0;exitPerimeter=0;" parent="e9sg7XmWo2hIKwXYMkLT-1" source="W9kJJ2JmV9t0-KWgIfCX-19" edge="1">
          <mxGeometry width="50" height="50" relative="1" as="geometry">
            <mxPoint x="530" y="440" as="sourcePoint" />
            <mxPoint x="640" y="710" as="targetPoint" />
            <Array as="points">
              <mxPoint x="310" y="690" />
            </Array>
          </mxGeometry>
        </mxCell>
        <mxCell id="W9kJJ2JmV9t0-KWgIfCX-29" style="edgeStyle=orthogonalEdgeStyle;rounded=0;orthogonalLoop=1;jettySize=auto;html=1;entryX=0.5;entryY=0;entryDx=0;entryDy=0;dashed=1;endArrow=open;endFill=0;startArrow=none;startFill=0;" parent="e9sg7XmWo2hIKwXYMkLT-1" source="W9kJJ2JmV9t0-KWgIfCX-0" edge="1">
          <mxGeometry relative="1" as="geometry">
            <mxPoint x="80" y="539" as="sourcePoint" />
            <mxPoint x="205" y="554" as="targetPoint" />
            <Array as="points">
              <mxPoint x="120" y="540" />
              <mxPoint x="205" y="540" />
            </Array>
          </mxGeometry>
        </mxCell>
        <mxCell id="W9kJJ2JmV9t0-KWgIfCX-30" value="Â«enumÂ»&lt;br&gt;&lt;b&gt;State&lt;br&gt;&lt;/b&gt;&lt;br&gt;NOTINIT&lt;br&gt;START&lt;br&gt;GOTUSERNAME&lt;br&gt;GOTPASSWORD&lt;br&gt;SUCCESS&lt;br&gt;DECLINED&lt;br&gt;EXIT" style="html=1;" parent="e9sg7XmWo2hIKwXYMkLT-1" vertex="1">
          <mxGeometry x="160" y="560" width="110" height="150" as="geometry" />
        </mxCell>
        <mxCell id="2uDa-N4fWmmT3BuRiZ5j-1" value="" style="endArrow=block;dashed=1;endFill=0;endSize=12;html=1;exitX=0.75;exitY=0;exitDx=0;exitDy=0;entryX=0.491;entryY=1.154;entryDx=0;entryDy=0;entryPerimeter=0;" parent="e9sg7XmWo2hIKwXYMkLT-1" source="W9kJJ2JmV9t0-KWgIfCX-14" target="OKOqGvB2Zo7uAsHzV2CE-1" edge="1">
          <mxGeometry width="160" relative="1" as="geometry">
            <mxPoint x="360" y="690" as="sourcePoint" />
            <mxPoint x="508" y="700" as="targetPoint" />
            <Array as="points">
              <mxPoint x="630" y="420" />
            </Array>
          </mxGeometry>
        </mxCell>
        <mxCell id="2uDa-N4fWmmT3BuRiZ5j-4" style="edgeStyle=orthogonalEdgeStyle;rounded=0;orthogonalLoop=1;jettySize=auto;html=1;dashed=1;endArrow=open;endFill=0;startArrow=none;startFill=0;entryX=0.336;entryY=0.019;entryDx=0;entryDy=0;entryPerimeter=0;exitX=1;exitY=0.5;exitDx=0;exitDy=0;" parent="e9sg7XmWo2hIKwXYMkLT-1" edge="1" target="OKOqGvB2Zo7uAsHzV2CE-0" source="W9kJJ2JmV9t0-KWgIfCX-0">
          <mxGeometry relative="1" as="geometry">
            <mxPoint x="470" y="262" as="sourcePoint" />
            <mxPoint x="553" y="236" as="targetPoint" />
            <Array as="points">
              <mxPoint x="470" y="275" />
              <mxPoint x="470" y="276" />
              <mxPoint x="554" y="276" />
            </Array>
          </mxGeometry>
        </mxCell>
        <mxCell id="2uDa-N4fWmmT3BuRiZ5j-5" style="edgeStyle=orthogonalEdgeStyle;rounded=0;orthogonalLoop=1;jettySize=auto;html=1;dashed=1;endArrow=open;endFill=0;startArrow=none;startFill=0;entryX=0.868;entryY=1.038;entryDx=0;entryDy=0;entryPerimeter=0;" parent="e9sg7XmWo2hIKwXYMkLT-1" edge="1" target="OKOqGvB2Zo7uAsHzV2CE-5">
          <mxGeometry relative="1" as="geometry">
            <mxPoint x="630" y="560" as="sourcePoint" />
            <mxPoint x="750" y="240" as="targetPoint" />
            <Array as="points">
              <mxPoint x="751" y="560" />
            </Array>
          </mxGeometry>
        </mxCell>
        <mxCell id="2uDa-N4fWmmT3BuRiZ5j-6" value="" style="endArrow=block;dashed=1;endFill=0;endSize=12;html=1;exitX=1.004;exitY=0.207;exitDx=0;exitDy=0;exitPerimeter=0;" parent="e9sg7XmWo2hIKwXYMkLT-1" edge="1" source="W9kJJ2JmV9t0-KWgIfCX-0">
          <mxGeometry width="160" relative="1" as="geometry">
            <mxPoint x="520" y="109" as="sourcePoint" />
            <mxPoint x="560" y="189" as="targetPoint" />
            <Array as="points">
              <mxPoint x="520" y="149" />
              <mxPoint x="520" y="189" />
            </Array>
          </mxGeometry>
        </mxCell>
        <mxCell id="OKOqGvB2Zo7uAsHzV2CE-0" value="Â«DelegateÂ»&#xa;HandleEvent" style="swimlane;fontStyle=0;childLayout=stackLayout;horizontal=1;startSize=26;fillColor=none;horizontalStack=0;resizeParent=1;resizeParentMax=0;resizeLast=0;collapsible=1;marginBottom=0;" vertex="1" parent="e9sg7XmWo2hIKwXYMkLT-1">
          <mxGeometry x="480" y="320" width="220" height="52" as="geometry" />
        </mxCell>
        <mxCell id="OKOqGvB2Zo7uAsHzV2CE-1" value="+handleEvents(State, String): void" style="text;strokeColor=none;fillColor=none;align=left;verticalAlign=top;spacingLeft=4;spacingRight=4;overflow=hidden;rotatable=0;points=[[0,0.5],[1,0.5]];portConstraint=eastwest;" vertex="1" parent="OKOqGvB2Zo7uAsHzV2CE-0">
          <mxGeometry y="26" width="220" height="26" as="geometry" />
        </mxCell>
        <mxCell id="OKOqGvB2Zo7uAsHzV2CE-4" value="Â«DelegateÂ»&#xa;Refresh" style="swimlane;fontStyle=0;childLayout=stackLayout;horizontal=1;startSize=26;fillColor=none;horizontalStack=0;resizeParent=1;resizeParentMax=0;resizeLast=0;collapsible=1;marginBottom=0;" vertex="1" parent="e9sg7XmWo2hIKwXYMkLT-1">
          <mxGeometry x="560" y="166" width="220" height="52" as="geometry" />
        </mxCell>
        <mxCell id="OKOqGvB2Zo7uAsHzV2CE-5" value="+DisplayState(State): void" style="text;strokeColor=none;fillColor=none;align=left;verticalAlign=top;spacingLeft=4;spacingRight=4;overflow=hidden;rotatable=0;points=[[0,0.5],[1,0.5]];portConstraint=eastwest;" vertex="1" parent="OKOqGvB2Zo7uAsHzV2CE-4">
          <mxGeometry y="26" width="220" height="26" as="geometry" />
        </mxCell>
      </root>
    </mxGraphModel>
  </diagram>
</mxfile>
